<svg width="90" height="90" viewBox="0 0 90 90" fill="none" xmlns="http://www.w3.org/2000/svg">
<circle cx="45" cy="45" r="45" fill="white"/>
<path d="M57.3621 45.7611H53.6614V54.6217H57.3621V45.7611Z" fill="#3EE500"/>
<path d="M50.3542 45.7611H46.6536V54.6217H50.3542V45.7611Z" fill="#3EE500"/>
<path d="M43.3464 45.7611H39.6458V54.6217H43.3464V45.7611Z" fill="#3EE500"/>
<path d="M36.3392 45.7611H32.6386V54.6217H36.3392V45.7611Z" fill="#3EE500"/>
<path d="M58.5956 42.9857V42.0605H31.405V42.9857C31.405 43.497 31.8189 43.9108 32.3302 43.9108H57.6704C58.1811 43.9108 58.5956 43.497 58.5956 42.9857Z" fill="#3EE500"/>
<mask id="mask0_1616_339" style="mask-type:luminance" maskUnits="userSpaceOnUse" x="29" y="29" width="32" height="32">
<path d="M60.7895 29.2105H29.2105V60.7895H60.7895V29.2105Z" fill="white"/>
</mask>
<g mask="url(#mask0_1616_339)">
<path d="M59.8637 56.472H30.1369C29.6256 56.472 29.2118 56.8859 29.2118 57.3972V59.8643C29.2118 60.3756 29.6256 60.7895 30.1369 60.7895H59.8643C60.375 60.7895 60.7895 60.375 60.7895 59.8643V57.3972C60.7895 56.8859 60.375 56.472 59.8643 56.472H59.8637Z" fill="#3EE500"/>
<path d="M30.1358 40.2103H59.8644C60.2783 40.2103 60.6422 39.9352 60.7544 39.5374C60.8667 39.139 60.7014 38.7146 60.3492 38.4975L45.4849 29.3483C45.1876 29.1651 44.8126 29.1651 44.5147 29.3483L29.651 38.4975C29.2988 38.7146 29.1329 39.139 29.2458 39.5374C29.3586 39.9358 29.7219 40.2103 30.1358 40.2103ZM44.371 34.6519H45.6286C46.1399 34.6519 46.5538 35.0658 46.5538 35.5771C46.5538 36.0884 46.1399 36.5023 45.6286 36.5023H44.371C43.8603 36.5023 43.4458 36.0884 43.4458 35.5771C43.4458 35.0658 43.8597 34.6519 44.371 34.6519Z" fill="#3EE500"/>
</g>
</svg>
