<svg width="90" height="90" viewBox="0 0 90 90" fill="none" xmlns="http://www.w3.org/2000/svg">
<circle cx="45" cy="45" r="45" fill="white"/>
<g clip-path="url(#clip0_1616_355)">
<path d="M56.1649 33.8351C53.1828 30.853 49.2175 29.2105 45 29.2105C40.7825 29.2105 36.8172 30.853 33.8351 33.8351C30.853 36.8172 29.2105 40.7825 29.2105 45C29.2105 49.2175 30.853 53.1828 33.8351 56.1649C36.8172 59.147 40.7825 60.7895 45 60.7895C49.2175 60.7895 53.1828 59.147 56.1649 56.1649C59.147 53.1828 60.7895 49.2175 60.7895 45C60.7895 40.7825 59.147 36.8172 56.1649 33.8351ZM45 57.4589C38.1303 57.4589 32.5411 51.8696 32.5411 45C32.5411 38.1303 38.1303 32.5411 45 32.5411C51.8697 32.5411 57.4589 38.1303 57.4589 45C57.4589 51.8696 51.8697 57.4589 45 57.4589Z" fill="#3EE500"/>
<path d="M45 34.3914C39.1505 34.3914 34.3914 39.1505 34.3914 45C34.3914 50.8495 39.1505 55.6085 45 55.6085C50.8495 55.6085 55.6086 50.8495 55.6086 45C55.6086 39.1505 50.8495 34.3914 45 34.3914ZM48.9801 48.7851C48.7556 49.2082 48.4527 49.5505 48.0715 49.8114C47.6904 50.0723 47.2519 50.2635 46.7553 50.3832C46.484 50.4492 46.2052 50.4961 45.9196 50.5257V52.6819H44.0693V50.485C43.6172 50.4227 43.1676 50.3246 42.7216 50.1871C41.9069 49.9367 41.1754 49.5814 40.5284 49.1219L41.4844 47.2574C41.5781 47.3511 41.7477 47.4745 41.9932 47.6256C42.2387 47.7773 42.5286 47.9284 42.8629 48.0802C43.1972 48.2319 43.5678 48.3596 43.9755 48.4638C44.3826 48.568 44.8002 48.6204 45.2288 48.6204C46.4192 48.6204 47.015 48.2393 47.015 47.4769C47.015 47.237 46.9465 47.0329 46.8115 46.8657C46.6758 46.6986 46.4821 46.5524 46.2317 46.4272C45.9813 46.3014 45.6778 46.1873 45.3232 46.0824C44.9679 45.9782 44.5707 45.8635 44.1328 45.7376C43.5999 45.5915 43.138 45.4323 42.7463 45.2596C42.3546 45.0876 42.0284 44.884 41.7669 44.6484C41.506 44.4134 41.3098 44.142 41.1797 43.8336C41.0489 43.5259 40.9836 43.1577 40.9836 42.729C40.9836 42.1653 41.0878 41.6638 41.2969 41.2253C41.5053 40.7868 41.7952 40.421 42.1659 40.1287C42.5366 39.8363 42.9677 39.6143 43.4587 39.4626C43.6567 39.4021 43.8602 39.354 44.0699 39.317V37.3008H45.9202V39.2905C46.3711 39.3491 46.7991 39.4527 47.2025 39.6032C47.8606 39.8487 48.4348 40.1385 48.9258 40.4728L47.9704 42.2276C47.897 42.1548 47.7638 42.0555 47.5707 41.9297C47.3777 41.8045 47.1421 41.6817 46.8657 41.5614C46.5888 41.4418 46.2884 41.34 45.9653 41.2561C45.6414 41.1729 45.3121 41.1309 44.9784 41.1309C44.3832 41.1309 43.9391 41.2407 43.6468 41.4603C43.3544 41.6792 43.2083 41.9876 43.2083 42.3842C43.2083 42.6143 43.2632 42.8049 43.3729 42.956C43.4827 43.1077 43.6412 43.2403 43.8509 43.3556C44.06 43.4704 44.3234 43.5752 44.6423 43.669C44.9605 43.7627 45.3287 43.8626 45.7469 43.9669C46.2897 44.113 46.7837 44.2697 47.2272 44.4369C47.6706 44.604 48.0469 44.8131 48.3553 45.0635C48.663 45.3145 48.9011 45.6143 49.0683 45.9646C49.2354 46.3149 49.3187 46.7454 49.3187 47.2568C49.3187 47.8526 49.2064 48.3614 48.9819 48.7845L48.9801 48.7851Z" fill="#3EE500"/>
</g>
<defs>
<clipPath id="clip0_1616_355">
<rect width="31.5789" height="31.5789" fill="white" transform="translate(29.2105 29.2105)"/>
</clipPath>
</defs>
</svg>
