<svg width="135" height="37" viewBox="0 0 135 37" fill="none" xmlns="http://www.w3.org/2000/svg">
<path d="M18.2682 36.5386C13.3878 36.5386 8.80072 34.6384 5.34933 31.187C1.90016 27.7378 0 23.1486 0 18.2682C0 13.3878 1.90016 8.80072 5.35155 5.35155C8.80072 1.90016 13.39 0 18.2682 0C23.1463 0 27.7356 1.90016 31.187 5.35155C34.6384 8.80295 36.5386 13.39 36.5386 18.2704C36.5386 23.1508 34.6384 27.7378 31.187 31.1892C27.7356 34.6406 23.1486 36.5408 18.2682 36.5408V36.5386ZM18.2682 2.43576C9.53856 2.43576 2.43576 9.53856 2.43576 18.2682C2.43576 26.9978 9.53856 34.1006 18.2682 34.1006C26.9978 34.1006 34.1006 26.9978 34.1006 18.2682C34.1006 9.53856 27 2.43576 18.2682 2.43576Z" fill="white"/>
<path d="M22.7663 22.0996H21.1306V23.7353H22.7663V22.0996Z" fill="white"/>
<path d="M9.40078 21.8751C9.40745 21.9218 9.41189 21.9684 9.42078 22.0129C9.42523 22.0396 9.43411 22.0662 9.44078 22.0929C9.44967 22.1329 9.46078 22.1729 9.4719 22.2129C9.48079 22.2418 9.48968 22.2685 9.50079 22.2951C9.51412 22.3329 9.52523 22.3685 9.54079 22.404C9.5519 22.4307 9.56524 22.4574 9.57635 22.4863C9.59191 22.5196 9.60746 22.5552 9.62524 22.5885C9.63858 22.6152 9.65413 22.6418 9.66969 22.6663C9.68747 22.6974 9.70747 22.7307 9.72747 22.7618C9.74303 22.7863 9.76081 22.813 9.77859 22.8374C9.80081 22.8663 9.82081 22.8974 9.84304 22.9241C9.86304 22.9485 9.88082 22.9708 9.90082 22.9952C9.92527 23.0219 9.94971 23.0485 9.97416 23.0752C9.99416 23.0974 10.0164 23.1197 10.0386 23.1397C10.0653 23.1641 10.0919 23.1885 10.1186 23.213C10.1408 23.233 10.1653 23.253 10.1897 23.2708C10.2186 23.293 10.2475 23.3152 10.2764 23.3352C10.3009 23.353 10.3253 23.3708 10.352 23.3863C10.3831 23.4063 10.4142 23.4263 10.4475 23.4441C10.4742 23.4597 10.4986 23.4752 10.5253 23.4886C10.5587 23.5064 10.5942 23.5219 10.6275 23.5375C10.6542 23.5508 10.6809 23.5619 10.7076 23.573C10.7453 23.5886 10.7831 23.6019 10.8209 23.6153C10.8476 23.6241 10.8742 23.6353 10.9009 23.6419C10.9431 23.6553 10.9854 23.6641 11.0276 23.6753C11.052 23.6819 11.0742 23.6886 11.0987 23.693C11.152 23.7041 11.2076 23.7108 11.2632 23.7175C11.2765 23.7175 11.2898 23.7219 11.3032 23.7241C11.3743 23.7308 11.4454 23.7353 11.5187 23.7353H15.0279L11.7099 22.0996H11.5187C11.2387 22.0996 11.012 21.8729 11.012 21.5929V12.9166C11.012 12.8833 11.0165 12.8521 11.0209 12.8233C11.0209 12.8144 11.0254 12.8055 11.0276 12.7944C11.032 12.7744 11.0387 12.7544 11.0454 12.7344C11.0498 12.7232 11.0542 12.7144 11.0587 12.7055C11.0676 12.6877 11.0765 12.6699 11.0876 12.6521C11.092 12.6432 11.0987 12.6343 11.1031 12.6255C11.1165 12.6055 11.132 12.5877 11.1476 12.5721C11.152 12.5677 11.1565 12.561 11.1609 12.5566C11.1831 12.5366 11.2054 12.5166 11.2298 12.4988C11.2365 12.4943 11.2432 12.4921 11.2476 12.4877C11.2676 12.4766 11.2876 12.4632 11.3076 12.4543C11.3165 12.4499 11.3276 12.4454 11.3365 12.4432C11.3476 12.4388 11.3565 12.4343 11.3676 12.4299H11.3698C11.4165 12.4188 11.4632 12.4077 11.5143 12.4077H15.0235L11.7054 10.772H11.5143C10.3342 10.772 9.37189 11.7321 9.37189 12.9144V21.5906C9.37189 21.6618 9.37633 21.7329 9.383 21.804C9.38522 21.8284 9.38967 21.8507 9.39189 21.8729L9.40078 21.8751Z" fill="white"/>
<path d="M11.7121 22.0995L15.0301 23.7352H21.1306V22.0995H11.7121Z" fill="white"/>
<path d="M25.0176 10.7764H11.7121L15.0301 12.4121H25.0176C25.2976 12.4121 25.5243 12.6387 25.5243 12.9188V21.595C25.5243 21.8751 25.2976 22.1017 25.0176 22.1017H22.7663V23.7374H25.0176C26.1977 23.7374 27.16 22.7774 27.16 21.595V12.9188C27.16 11.7387 26.1999 10.7764 25.0176 10.7764Z" fill="white"/>
<path d="M11.0498 12.7353C11.0498 12.7353 11.059 12.7147 11.0635 12.7032C11.059 12.7124 11.0544 12.7238 11.0498 12.733V12.7353Z" fill="white"/>
<path d="M21.1306 26.0776C21.1306 26.3066 20.8284 26.5599 20.475 26.4843C18.9105 26.1532 15.0301 23.7352 15.0301 23.7352H11.521C11.4476 23.7352 11.3765 23.7308 11.3054 23.7241C11.3054 23.7241 11.3076 23.7241 11.3098 23.7241C11.3098 23.7241 17.957 27.6422 20.4328 28.22C20.4795 28.2312 20.6239 28.22 20.6239 28.22C21.804 28.22 22.7663 27.26 22.7663 26.0776V23.7352H21.1306V26.0776Z" fill="white"/>
<path d="M15.0301 12.4121H11.5209C11.4698 12.4121 11.4232 12.421 11.3765 12.4343H11.3743C11.3743 12.4343 18.1682 15.7813 20.4328 16.8969C20.9462 17.1503 21.1306 17.257 21.1306 18.4015V22.0996H22.7663V17.4014C22.7663 16.2924 22.4952 15.9657 20.835 15.2701" fill="white"/>
<path d="M41.3279 26.6977V10.8164H44.8215V26.6977H41.3279Z" fill="white"/>
<path d="M63.3119 26.6977V19.915C63.3119 18.2815 62.5852 17.4414 61.2917 17.4414C59.9983 17.4414 59.2049 18.2815 59.2049 19.915V26.6977H55.7557V19.915C55.7557 18.2815 55.029 17.4414 53.7355 17.4414C52.4421 17.4414 51.6487 18.2815 51.6487 19.915V26.6977H48.1995V14.5367H51.6487V16.2613C52.4421 15.2412 53.4866 14.3101 55.2334 14.3101C56.8225 14.3101 58.0248 15.0146 58.6604 16.2391C59.7271 14.9923 60.9961 14.3101 62.654 14.3101C65.2187 14.3101 66.761 15.8524 66.761 18.7793V26.6977H63.3119Z" fill="white"/>
<path d="M76.6507 26.6978V25.3821C75.8107 26.3133 74.655 26.9245 72.9749 26.9245C70.6836 26.9245 68.8012 25.6088 68.8012 23.2042V23.1597C68.8012 20.5062 70.8214 19.2794 73.7016 19.2794C74.9262 19.2794 75.8107 19.4839 76.673 19.7794V19.575C76.673 18.146 75.7885 17.3526 74.0639 17.3526C72.7482 17.3526 71.817 17.6015 70.7058 18.0104L69.8435 15.3791C71.1814 14.7901 72.4971 14.4034 74.5617 14.4034C78.3287 14.4034 79.9844 16.3547 79.9844 19.6439V26.7H76.6485L76.6507 26.6978ZM76.7196 21.7974C76.1307 21.524 75.3573 21.344 74.5195 21.344C73.0438 21.344 72.137 21.933 72.137 23.0219V23.0664C72.137 23.9976 72.9082 24.5421 74.0194 24.5421C75.6307 24.5421 76.7196 23.6575 76.7196 22.4085V21.7952V21.7974Z" fill="white"/>
<path d="M82.889 26.6977V10.1342H86.3382V26.6955H82.889V26.6977Z" fill="white"/>
<path d="M89.4229 13.1989V10.1365H93.0521V13.1989H89.4229ZM89.514 26.6978V14.5368H92.9632V26.6978H89.514Z" fill="white"/>
<path d="M102.491 21.9329H99.8371V26.6977H96.3435V10.8164H102.833C106.622 10.8164 108.913 13.0633 108.913 16.3057V16.3502C108.913 20.0261 106.055 21.9307 102.493 21.9307L102.491 21.9329ZM105.373 16.3746C105.373 14.8101 104.284 13.97 102.537 13.97H99.8371V18.826H102.604C104.351 18.826 105.371 17.7814 105.371 16.4213V16.3769L105.373 16.3746Z" fill="white"/>
<path d="M117.803 26.6978V25.3821C116.963 26.3133 115.807 26.9245 114.127 26.9245C111.836 26.9245 109.953 25.6088 109.953 23.2042V23.1597C109.953 20.5062 111.974 19.2794 114.854 19.2794C116.078 19.2794 116.963 19.4839 117.825 19.7794V19.575C117.825 18.146 116.941 17.3526 115.216 17.3526C113.9 17.3526 112.969 17.6015 111.858 18.0104L110.996 15.3791C112.334 14.7901 113.649 14.4034 115.714 14.4034C119.481 14.4034 121.137 16.3547 121.137 19.6439V26.7H117.801L117.803 26.6978ZM117.872 21.7974C117.283 21.524 116.51 21.344 115.672 21.344C114.196 21.344 113.289 21.933 113.289 23.0219V23.0664C113.289 23.9976 114.06 24.5421 115.172 24.5421C116.783 24.5421 117.872 23.6575 117.872 22.4085V21.7952V21.7974Z" fill="white"/>
<path d="M130.326 26.9911C129.395 29.4647 128.397 30.3936 126.333 30.3936C125.086 30.3936 124.155 30.0758 123.27 29.5536L124.428 27.0578C124.881 27.3312 125.448 27.5334 125.904 27.5334C126.493 27.5334 126.81 27.3512 127.106 26.74L122.341 14.5345H125.995L128.762 22.8152L131.415 14.5345H135L130.326 26.9889V26.9911Z" fill="white"/>
</svg>
