<svg width="90" height="90" viewBox="0 0 90 90" fill="none" xmlns="http://www.w3.org/2000/svg">
<circle cx="45" cy="45" r="45" fill="white"/>
<g clip-path="url(#clip0_1616_362)">
<mask id="mask0_1616_362" style="mask-type:luminance" maskUnits="userSpaceOnUse" x="30" y="29" width="30" height="32">
<path d="M59.0638 29.2105H30V60.7895H59.0638V29.2105Z" fill="white"/>
</mask>
<g mask="url(#mask0_1616_362)">
<path d="M56.7266 33.3009C54.7285 33.0885 52.762 32.6442 50.8663 31.9763C49.1272 31.3614 47.4588 30.5622 45.8901 29.5925C45.0554 29.0857 44.0084 29.0857 43.1737 29.5925L43.1719 29.5943C41.6032 30.5641 39.9357 31.3624 38.1966 31.9772C36.3018 32.6442 34.3354 33.0885 32.3381 33.3018C31.0098 33.4369 30 34.5566 30 35.8924V43.6353C30.0019 49.4537 33.156 54.8137 38.2413 57.64L43.2641 60.4318C44.0503 60.8743 45.0116 60.8743 45.7979 60.4318L50.8225 57.64C55.9078 54.8128 59.0619 49.4527 59.0638 43.6353V35.8924C59.0638 34.5566 58.055 33.4369 56.7266 33.3V33.3009ZM50.4639 42.2464L44.8747 48.2082C44.3223 48.7979 43.401 48.8407 42.7974 48.3023L39.4439 45.3214C38.8291 44.7746 38.7732 43.8328 39.32 43.218C39.8668 42.6032 40.8086 42.5473 41.4234 43.0941L43.6926 45.1099L48.2888 40.2073C48.571 39.9073 48.9641 39.7369 49.3759 39.7359C49.9702 39.7359 50.5068 40.089 50.7424 40.6339C50.9781 41.1789 50.8682 41.8114 50.463 42.2455L50.4639 42.2464Z" fill="#3EE500"/>
</g>
</g>
<defs>
<clipPath id="clip0_1616_362">
<rect width="29.0638" height="31.5789" fill="white" transform="translate(30 29.2105)"/>
</clipPath>
</defs>
</svg>
