<svg width="179" height="60" viewBox="0 0 179 60" fill="none" xmlns="http://www.w3.org/2000/svg">
<g clip-path="url(#clip0_1616_326)">
<path d="M1.29009 27.6524C2.14269 29.1372 3.3527 30.3424 4.88783 31.2355L18.4542 39.117C18.7836 39.3077 19.1431 39.3988 19.4984 39.3988C20.2283 39.3988 20.9388 39.0173 21.3263 38.3366C21.9055 37.3244 21.5567 36.026 20.5512 35.4429L13.9048 31.5801V31.5758L6.99996 27.5614C6.11076 27.0433 5.41532 26.3583 4.93735 25.5238C4.91797 25.4913 4.90074 25.4609 4.88567 25.4392C4.44645 24.6351 4.22469 23.7181 4.22469 22.7145C4.22469 21.7109 4.46583 20.7225 4.9395 19.8966C5.41532 19.0664 6.10645 18.3836 6.99351 17.8677L30.9332 3.95586C31.9387 3.37277 32.2875 2.07653 31.7105 1.06208C31.1335 0.0476261 29.8438 -0.301362 28.8362 0.28173L4.89859 14.1957C3.35916 15.091 2.14484 16.2983 1.29224 17.7875C0.435326 19.281 0.00256348 20.9392 0.00256348 22.7167C0.00256348 24.4942 0.413795 26.0635 1.22334 27.5202C1.24487 27.5657 1.26855 27.609 1.29439 27.6524H1.29009Z" fill="white"/>
<path d="M2.11644 49.5131C2.47384 49.5131 2.83771 49.422 3.16928 49.2269L12.07 44.0528C12.5566 43.7689 12.9054 43.3115 13.0496 42.7631C13.1939 42.2147 13.1185 41.6424 12.8365 41.1525C12.5544 40.6626 12.1001 40.3115 11.5554 40.1663C11.0107 40.021 10.4423 40.0969 9.95568 40.3808L1.05499 45.555C0.049514 46.1424 -0.294974 47.443 0.286349 48.4553C0.676051 49.1337 1.38656 49.5131 2.11429 49.5131H2.11644Z" fill="white"/>
<path d="M30.7757 32.4777C30.7541 32.4322 30.7304 32.3888 30.7046 32.3455C29.8542 30.8606 28.642 29.6554 27.1069 28.7624L13.5405 20.8809C12.535 20.2978 11.2454 20.6489 10.6662 21.6612C10.3863 22.1511 10.3131 22.7234 10.4595 23.2696C10.6059 23.8158 10.9547 24.2732 11.4435 24.555L18.0878 28.4156V28.4199L24.9947 32.4365C25.8839 32.9546 26.5794 33.6395 27.0573 34.4741C27.0767 34.5066 27.094 34.5369 27.109 34.5586C27.5482 35.3628 27.77 36.2797 27.77 37.2833C27.77 38.2869 27.5289 39.2754 27.0552 40.1012C26.5794 40.9314 25.8882 41.6143 25.0012 42.1301L1.06361 56.042C0.577025 56.3238 0.226078 56.7812 0.0796707 57.3274C-0.0667365 57.8736 0.0064671 58.4459 0.286363 58.9358C0.566259 59.4257 1.02055 59.779 1.56312 59.9264C1.74613 59.9762 1.93129 60.0001 2.11645 60.0001C2.48032 60.0001 2.83772 59.9047 3.16283 59.7183L27.1004 45.8043C28.6398 44.909 29.8542 43.7017 30.7068 42.2125C31.5637 40.719 31.9964 39.0608 31.9964 37.2833C31.9964 35.5059 31.5852 33.9365 30.7757 32.4799V32.4777Z" fill="white"/>
<path d="M28.8272 10.771L19.9265 15.9452C19.4399 16.2291 19.0911 16.6887 18.9468 17.2349C18.8026 17.7811 18.8779 18.3556 19.16 18.8454C19.5497 19.5239 20.2602 19.9032 20.9879 19.9032C21.3453 19.9032 21.7092 19.8122 22.0408 19.6171L30.9415 14.443C31.9469 13.8556 32.2914 12.555 31.7101 11.5427C31.1266 10.5304 29.8348 10.1836 28.8293 10.7689L28.8272 10.771Z" fill="white"/>
<path d="M51.1435 22.4935C50.9971 23.224 50.0863 23.5058 49.5782 22.9617C49.3801 22.7493 49.1605 22.5563 48.9194 22.3808C47.8278 21.5939 46.5359 21.1951 45.0783 21.1951C42.3698 21.1951 40.122 22.2052 38.3974 24.1972C36.7094 26.1503 35.493 28.9877 34.7803 32.638C34.5952 33.6329 34.4401 34.6799 34.3196 35.7507C34.1968 36.8345 34.1344 37.81 34.1344 38.651C34.1344 41.0657 34.6856 43.0556 35.7707 44.5665C36.8881 46.1228 38.5589 46.9118 40.7399 46.9118C43.4829 46.9118 45.6144 45.5332 47.0979 42.8107C47.085 42.8844 47.0742 42.9559 47.0634 43.0253C47.029 43.2572 47.0139 43.5087 47.0139 43.7731C47.0139 44.6011 47.2723 45.2514 47.7804 45.7023C48.2713 46.1402 48.9474 46.3613 49.7849 46.3613H52.8573C53.2987 46.3613 53.6776 46.0469 53.7637 45.6113L54.1642 43.5997C54.2783 43.0231 53.8412 42.4855 53.2578 42.4855H52.5925C52.009 42.4855 51.5698 41.948 51.686 41.3714L55.3548 22.862C55.4689 22.2854 55.0319 21.7478 54.4484 21.7478H52.0564C51.6171 21.7478 51.2361 22.06 51.1499 22.4956L51.1435 22.4935ZM44.1741 42.518C43.5734 42.8627 42.8629 43.0361 42.0619 43.0361C40.8971 43.0361 40.0165 42.7045 39.3663 42.0195C38.7204 41.341 38.3931 40.203 38.3931 38.6402C38.3931 38.328 38.4017 37.9769 38.4168 37.5975C38.4297 37.2269 38.4814 36.8345 38.5697 36.4227L39.6182 31.0795C40.0251 29.1134 40.7313 27.5982 41.7174 26.573C42.6906 25.5628 43.9544 25.0708 45.58 25.0708C46.297 25.0708 46.9429 25.2182 47.5027 25.5065C48.0711 25.8013 48.5404 26.1676 48.8957 26.5946C49.2509 27.0217 49.505 27.5029 49.6557 28.0231C49.8043 28.5412 49.8387 29.0311 49.7612 29.4732L48.4823 35.9285C48.338 36.6806 48.0302 37.5152 47.5651 38.4104C47.0936 39.3186 46.5553 40.1553 45.9675 40.8967C45.3948 41.6185 44.792 42.1626 44.1762 42.5159L44.1741 42.518Z" fill="white"/>
<path d="M87.1941 31.2811C87.347 30.6026 87.4654 29.9718 87.5429 29.4082C87.6204 28.8381 87.6613 28.2919 87.6613 27.7868C87.6613 25.7384 87.2156 24.117 86.3372 22.9725C85.4308 21.7933 84.1002 21.1951 82.3799 21.1951C80.6596 21.1951 79.1848 21.6351 77.9295 22.5043C77.176 23.0267 76.5171 23.7355 75.9595 24.6221C75.6925 25.0469 75.0681 24.9754 74.898 24.505C74.6397 23.7962 74.2909 23.1893 73.8495 22.6886C72.9732 21.698 71.7417 21.1951 70.1872 21.1951C68.3399 21.1951 66.7854 21.8042 65.5387 23.0137C65.1254 23.4147 64.4428 23.0289 64.5548 22.461C64.628 22.0925 64.3481 21.7478 63.9735 21.7478H60.9032C60.6212 21.7478 60.3779 21.9494 60.3219 22.2269L55.6778 45.6459C55.6046 46.0144 55.8845 46.3591 56.2591 46.3591H59.3294C59.6114 46.3591 59.8547 46.1575 59.9107 45.88L62.6278 32.1698C62.7721 31.3504 63.0757 30.4335 63.53 29.4451C63.9843 28.4545 64.5247 27.5636 65.1404 26.7962C66.0662 25.6365 67.2224 25.073 68.6779 25.073C69.4465 25.073 70.03 25.2876 70.4671 25.7254C70.8977 26.1589 71.1151 26.9371 71.1151 28.0383C71.1151 28.862 70.9946 29.8548 70.7577 30.9928L67.8705 45.6481C67.7973 46.0166 68.0772 46.3613 68.4518 46.3613H71.5221C71.8041 46.3613 72.0474 46.1597 72.1034 45.8822L74.8205 32.1719C74.9669 31.3526 75.2705 30.4357 75.7227 29.4472C76.177 28.4566 76.7195 27.5657 77.3331 26.7984C78.2589 25.6387 79.4173 25.0751 80.8727 25.0751C81.6392 25.0751 82.2249 25.2897 82.6619 25.7276C83.0925 26.1611 83.31 26.9393 83.31 28.0404C83.31 28.8641 83.1894 29.8569 82.9526 30.9949L80.7199 42.2623C80.6553 42.5224 80.6058 42.7695 80.5735 42.9971C80.539 43.229 80.524 43.4848 80.524 43.7514C80.524 45.4335 81.4756 46.3613 83.2023 46.3613H86.6386C86.9207 46.3613 87.164 46.1597 87.2199 45.8822L87.7539 43.2009C87.8271 42.8324 87.5472 42.4877 87.1726 42.4877H85.6956C85.3209 42.4877 85.0411 42.143 85.1143 41.7746L87.1941 31.2854V31.2811Z" fill="white"/>
<path d="M103.471 39.3815C102.78 40.4849 101.904 41.3823 100.866 42.0499C99.8475 42.7045 98.6224 43.0383 97.2208 43.0383C95.8192 43.0383 94.7599 42.659 94.0451 41.909C93.3238 41.1568 92.9578 39.9061 92.9578 38.1937C92.9578 37.8902 92.9642 37.5477 92.9815 37.1771C92.9901 36.9841 93.0159 36.7587 93.0633 36.5051C93.102 36.297 93.2829 36.1453 93.4917 36.1388C98.0971 36 101.635 35.3411 104.014 34.1792C106.617 32.909 107.939 30.8107 107.939 27.9408C107.939 26.8071 107.741 25.8078 107.349 24.9711C106.957 24.1344 106.419 23.4256 105.747 22.8642C105.082 22.3093 104.283 21.8866 103.379 21.6091C102.487 21.3382 101.523 21.1995 100.511 21.1995C97.6622 21.1995 95.2379 22.1879 93.3023 24.1344C91.3904 26.0593 90.0598 28.8577 89.345 32.4538C89.1598 33.388 89.0048 34.3895 88.8821 35.4321C88.7593 36.4856 88.6969 37.4307 88.6969 38.2435C88.6969 40.7927 89.3859 42.8931 90.7444 44.4863C92.1202 46.099 94.2216 46.9162 96.9926 46.9162C98.9734 46.9162 100.803 46.4654 102.433 45.5745C104.061 44.6836 105.385 43.4068 106.367 41.7833C106.367 41.7833 106.382 41.7573 106.388 41.7486C106.552 41.5297 106.468 41.4126 106.335 41.2674C106.32 41.25 106.268 41.2089 106.268 41.2089L104.136 39.2905C103.934 39.1084 103.615 39.1518 103.471 39.3837V39.3815ZM100.19 24.9798C100.64 24.9798 101.092 25.0297 101.531 25.1294C101.94 25.2226 102.306 25.3895 102.621 25.6258C102.931 25.8599 103.17 26.1655 103.353 26.5622C103.538 26.961 103.63 27.5029 103.63 28.1684C103.63 28.9141 103.482 29.5492 103.187 30.0607C102.901 30.5571 102.386 30.9755 101.654 31.3028C100.87 31.6539 99.7937 31.9357 98.4545 32.1438C97.35 32.3151 95.9936 32.4473 94.4111 32.5405C94.1226 32.5578 93.8944 32.2956 93.9525 32.0094L94.1807 30.8801C94.5876 28.9509 95.3003 27.4639 96.2993 26.4581C97.2876 25.4632 98.56 24.9776 100.19 24.9776V24.9798Z" fill="white"/>
<path d="M126.926 31.2811C127.079 30.6026 127.198 29.974 127.275 29.4082C127.353 28.8381 127.394 28.2919 127.394 27.7868C127.394 25.7341 126.922 24.1105 125.992 22.9639C125.04 21.7912 123.643 21.1951 121.837 21.1951C120.196 21.1951 118.749 21.6459 117.535 22.5347C117.328 22.6864 117.128 22.8533 116.934 23.0332C116.501 23.4386 115.81 23.0571 115.924 22.474C116 22.0968 115.713 21.7456 115.332 21.7456H112.288C111.999 21.7456 111.752 21.9516 111.696 22.2355L107.058 45.6308C106.983 46.0079 107.269 46.3591 107.65 46.3591H110.695C110.983 46.3591 111.231 46.1532 111.287 45.8692L114.002 32.1698C114.146 31.3504 114.449 30.4335 114.904 29.4451C115.358 28.4545 115.901 27.5636 116.51 26.8006C117.466 25.6365 118.715 25.073 120.327 25.073C121.195 25.073 121.852 25.2919 122.336 25.7384C122.803 26.1719 123.038 26.9458 123.038 28.0383C123.038 28.8641 122.917 29.8569 122.681 30.9928L120.448 42.2601C120.383 42.5159 120.336 42.763 120.301 42.9971C120.269 43.2312 120.252 43.4848 120.252 43.7514C120.252 45.4335 121.204 46.3613 122.93 46.3613H126.358C126.647 46.3613 126.894 46.1575 126.95 45.8714L127.478 43.2139C127.553 42.8367 127.267 42.4855 126.885 42.4855H125.436C125.055 42.4855 124.769 42.1344 124.844 41.7572L126.922 31.2811H126.926Z" fill="white"/>
<path d="M150.464 11.4473H148.627C148.056 11.4473 147.566 11.8526 147.454 12.4162L145.537 22.0015C145.354 22.9119 144.265 23.2782 143.572 22.6648C143.46 22.565 143.341 22.4718 143.216 22.3808C142.125 21.5939 140.831 21.1951 139.375 21.1951C136.667 21.1951 134.419 22.2052 132.694 24.1973C131.006 26.1503 129.79 28.9877 129.077 32.638C128.892 33.6308 128.737 34.6778 128.617 35.7507C128.494 36.8346 128.431 37.81 128.431 38.651C128.431 41.0658 128.983 43.0557 130.068 44.5665C131.185 46.1228 132.856 46.9119 135.037 46.9119C137.78 46.9119 139.911 45.5333 141.395 42.8107C141.382 42.8844 141.371 42.9559 141.36 43.0253C141.326 43.2551 141.311 43.5087 141.311 43.7731C141.311 44.6012 141.569 45.2515 142.077 45.7023C142.568 46.1402 143.242 46.3613 144.082 46.3613H146.933C147.503 46.3613 147.996 45.9559 148.108 45.3924L148.399 43.9292C148.547 43.1835 147.979 42.4877 147.223 42.4877C146.467 42.4877 145.901 41.7919 146.048 41.0463L151.639 12.8952C151.788 12.1496 151.221 11.4538 150.464 11.4538V11.4473ZM138.473 42.5181C137.873 42.8627 137.162 43.0361 136.361 43.0361C135.196 43.0361 134.314 42.7045 133.665 42.0195C133.02 41.3411 132.692 40.203 132.692 38.6402C132.692 38.3346 132.701 37.9834 132.716 37.5976C132.729 37.2247 132.781 36.8324 132.869 36.4227L133.917 31.0795C134.324 29.1135 135.031 27.5983 136.017 26.573C136.99 25.5629 138.254 25.0708 139.879 25.0708C140.596 25.0708 141.242 25.2182 141.802 25.5065C142.37 25.8013 142.84 26.1676 143.195 26.5947C143.55 27.0217 143.804 27.5029 143.955 28.0231C144.103 28.5412 144.138 29.0311 144.06 29.4733L142.781 35.9285C142.637 36.6807 142.329 37.5174 141.864 38.4104C141.391 39.3187 140.855 40.1554 140.267 40.8967C139.694 41.6185 139.091 42.1626 138.475 42.5159L138.473 42.5181Z" fill="white"/>
<path d="M170.616 21.7478H168.224C167.785 21.7478 167.404 22.06 167.318 22.4957C167.171 23.2262 166.26 23.508 165.752 22.9639C165.554 22.7515 165.335 22.5585 165.094 22.383C164.002 21.5961 162.708 21.1973 161.252 21.1973C158.544 21.1973 156.296 22.2074 154.572 24.1994C152.884 26.1525 151.665 28.9899 150.954 32.6402C150.769 33.6308 150.614 34.6778 150.494 35.7529C150.371 36.8367 150.309 37.8122 150.309 38.6532C150.309 41.0679 150.86 43.0578 151.945 44.5687C153.062 46.125 154.733 46.914 156.914 46.914C159.657 46.914 161.789 45.5354 163.272 42.8129C163.259 42.8866 163.248 42.9581 163.238 43.0275C163.205 43.2594 163.188 43.5109 163.188 43.7753C163.188 44.6033 163.446 45.2536 163.955 45.7045C164.445 46.1424 165.121 46.3635 165.959 46.3635H169.031C169.473 46.3635 169.852 46.0491 169.938 45.6156L170.338 43.6041C170.452 43.0275 170.015 42.4899 169.432 42.4899H168.767C168.183 42.4899 167.744 41.9523 167.86 41.3757L171.529 22.8663C171.643 22.2898 171.206 21.7522 170.623 21.7522L170.616 21.7478ZM160.348 42.5181C159.75 42.8627 159.039 43.0361 158.236 43.0361C157.071 43.0361 156.191 42.7045 155.54 42.0217C154.895 41.3432 154.567 40.2052 154.567 38.6402C154.567 38.3259 154.574 37.9747 154.589 37.5976C154.604 37.2247 154.653 36.8324 154.742 36.4227L155.79 31.0795C156.197 29.1135 156.903 27.5983 157.889 26.573C158.863 25.5629 160.126 25.0708 161.752 25.0708C162.469 25.0708 163.115 25.2182 163.675 25.5065C164.243 25.8013 164.712 26.1676 165.068 26.5947C165.423 27.0217 165.677 27.5029 165.828 28.0231C165.976 28.539 166.011 29.0311 165.933 29.4733L164.654 35.9285C164.51 36.6828 164.2 37.5195 163.737 38.4104C163.266 39.3187 162.727 40.1554 162.14 40.8967C161.567 41.6185 160.964 42.1626 160.348 42.5159V42.5181Z" fill="white"/>
<path d="M178.255 41.1265C177.796 40.7775 177.161 40.5997 176.367 40.5997C175.273 40.5997 174.492 40.8143 173.981 41.2587C173.486 41.6857 173.146 42.258 172.969 42.9689C172.808 43.6799 172.73 44.2544 172.73 44.7226C172.73 45.4487 172.982 46.008 173.475 46.3851C173.932 46.7341 174.567 46.9119 175.363 46.9119C176.455 46.9119 177.237 46.6973 177.751 46.2529C178.246 45.8259 178.584 45.2536 178.761 44.5427C178.922 43.8273 179 43.2551 179 42.789C179 42.065 178.75 41.5058 178.255 41.1243V41.1265Z" fill="#9EFF00"/>
</g>
<defs>
<clipPath id="clip0_1616_326">
<rect width="179" height="60" fill="white"/>
</clipPath>
</defs>
</svg>
