<svg width="53" height="26" viewBox="0 0 53 26" fill="none" xmlns="http://www.w3.org/2000/svg">
<path d="M12.5 25.1039C19.4036 25.1039 25 19.5074 25 12.6039C25 5.70032 19.4036 0.103882 12.5 0.103882C5.59644 0.103882 0 5.70032 0 12.6039C0 19.5074 5.59644 25.1039 12.5 25.1039Z" fill="white"/>
<path d="M13.7402 11.5259L17.1389 7.65674H16.3329L13.3815 11.0158L11.0265 7.65674H8.30801L11.872 12.7349L8.30801 16.7904H9.114L12.2284 13.2427L14.7163 16.7904H17.4347M9.40285 8.25074H10.6398L16.3329 16.2267H15.096" fill="#0A5AFF"/>
<path d="M39.9334 25.1039C46.837 25.1039 52.4334 19.5074 52.4334 12.6039C52.4334 5.70032 46.837 0.103882 39.9334 0.103882C33.0299 0.103882 27.4334 5.70032 27.4334 12.6039C27.4334 19.5074 33.0299 25.1039 39.9334 25.1039Z" fill="white"/>
<path fill-rule="evenodd" clip-rule="evenodd" d="M44.5642 16.7202H42.7011V13.5488C42.7011 12.6797 42.3705 12.1919 41.6817 12.1919C40.9328 12.1919 40.5421 12.6981 40.5421 13.5488V16.7202H38.7461V10.6779H40.5421V11.4915C40.5421 11.4915 41.0807 10.493 42.3636 10.493C43.6465 10.493 44.5642 11.2766 44.5642 12.8946V16.7202ZM36.6056 9.88504C35.9931 9.88504 35.4984 9.38575 35.4984 8.77089C35.4984 8.15603 35.9931 7.65674 36.6056 7.65674C37.2182 7.65674 37.7128 8.15603 37.7128 8.77089C37.7128 9.38575 37.2182 9.88504 36.6056 9.88504ZM35.6787 16.7202H37.551V10.6779H35.6787V16.7202Z" fill="#0A5AFF"/>
</svg>
